<svg width="120" height="40" viewBox="0 0 120 40" version="1.1" xmlns="http://www.w3.org/2000/svg" xmlns:xlink="http://www.w3.org/1999/xlink">
<title>Vector</title>
<desc>Created using Figma</desc>
<g id="Canvas" transform="translate(161 -1345)">
<g id="Vector">
<use xlink:href="#path0_fill" transform="translate(-160.12 1345.88)"/>
</g>
</g>
<defs>
<path id="path0_fill" d="M 7.6351 38.25C 7.32787 38.25 7.02807 38.2461 6.72325 38.2393C 6.0918 38.2311 5.46182 38.1766 4.83849 38.0762C 4.25726 37.9769 3.69421 37.7923 3.1679 37.5283C 2.64642 37.2665 2.17079 36.9233 1.75923 36.5117C 1.34171 36.105 0.994105 35.6332 0.730191 35.1152C 0.463369 34.5938 0.278713 34.0349 0.182654 33.458C 0.0789184 32.8381 0.0227933 32.2113 0.0147624 31.583C 0.00836937 31.3721 -2.04446e-08 30.6699 -2.04446e-08 30.6699L -2.04446e-08 7.56934C -2.04446e-08 7.56934 0.0089139 6.87793 0.0148128 6.6748C 0.0225023 6.04748 0.0783011 5.42165 0.181726 4.80273C 0.277962 4.22425 0.462762 3.66375 0.729728 3.14063C 0.992672 2.62294 1.33835 2.15086 1.75335 1.74268C 2.16789 1.33062 2.64504 0.985604 3.16741 0.72021C 3.69251 0.457094 4.25449 0.273733 4.83455 0.17627C 5.45993 0.0748361 6.09209 0.0199961 6.72573 0.01221L 7.63559 0L 111.263 0L 112.184 0.0127C 112.812 0.0200992 113.438 0.07445 114.058 0.17529C 114.644 0.273975 115.211 0.458616 115.742 0.72314C 116.789 1.25799 117.64 2.10416 118.178 3.14307C 118.44 3.66258 118.622 4.21851 118.717 4.79199C 118.822 5.41599 118.881 6.04674 118.893 6.6792C 118.896 6.9624 118.896 7.2666 118.896 7.56934C 118.903 7.94434 118.903 8.30127 118.903 8.66113L 118.903 29.5898C 118.903 29.9531 118.903 30.3076 118.896 30.665C 118.896 30.9902 118.896 31.2881 118.892 31.5947C 118.88 32.2159 118.822 32.8354 118.719 33.4482C 118.625 34.0293 118.442 34.5925 118.175 35.1182C 117.909 35.6306 117.563 36.0983 117.151 36.5039C 116.739 36.9177 116.262 37.2629 115.74 37.5264C 115.21 37.7924 114.643 37.9777 114.058 38.0762C 113.434 38.1772 112.804 38.2317 112.173 38.2393C 111.877 38.2461 111.568 38.25 111.268 38.25L 110.175 38.252L 7.6351 38.25Z"/>
</defs>
</svg>
